<?xml version="1.0" standalone="no"?>
<!DOCTYPE svg PUBLIC "-//W3C//DTD SVG 20010904//EN"
 "http://www.w3.org/TR/2001/REC-SVG-20010904/DTD/svg10.dtd">
<svg version="1.0" xmlns="http://www.w3.org/2000/svg"
 width="1656.000000pt" height="1656.000000pt" viewBox="0 0 1656.000000 1656.000000"
 preserveAspectRatio="xMidYMid meet">
<metadata>
Created by potrace 1.14, written by Peter Selinger 2001-2017
</metadata>
<g transform="translate(0.000000,1656.000000) scale(0.100000,-0.100000)"
fill="#000000" stroke="none">
<path d="M4683 11552 c-21 -3 -19 -7 26 -67 27 -35 55 -70 61 -77 6 -7 38 -49
71 -93 33 -44 71 -93 84 -110 13 -16 86 -113 164 -215 143 -188 168 -221 186
-243 10 -12 64 -82 215 -282 46 -60 87 -111 92 -113 4 -2 8 -10 8 -17 0 -8 6
-18 13 -22 7 -4 24 -24 37 -43 13 -19 27 -37 30 -40 3 -3 18 -23 35 -45 16
-22 37 -49 47 -59 10 -11 18 -23 18 -26 0 -4 10 -18 21 -31 12 -13 40 -49 63
-79 22 -30 43 -57 46 -60 3 -3 17 -21 30 -40 13 -19 27 -37 30 -40 5 -5 47
-59 310 -405 46 -60 87 -112 92 -113 4 -2 6 -8 2 -13 -3 -5 -1 -9 4 -9 5 0 24
-21 42 -47 19 -27 45 -59 57 -73 13 -14 23 -28 23 -32 0 -3 6 -13 13 -20 7 -7
35 -42 62 -78 27 -36 53 -69 58 -75 4 -5 35 -46 68 -90 33 -44 68 -89 77 -100
10 -11 28 -36 42 -55 13 -19 32 -44 42 -54 10 -11 18 -23 18 -27 0 -4 12 -20
28 -36 15 -16 32 -36 37 -45 6 -9 29 -41 51 -70 23 -29 111 -143 195 -253 84
-110 156 -201 161 -203 4 -2 8 -10 8 -18 0 -8 7 -17 15 -20 34 -14 28 -45 -22
-102 -27 -31 -60 -70 -74 -86 -13 -15 -33 -38 -44 -50 -62 -69 -114 -128 -142
-162 -17 -22 -51 -60 -75 -86 -24 -26 -63 -71 -88 -99 -47 -54 -136 -156 -154
-175 -6 -6 -29 -33 -51 -59 -22 -26 -50 -59 -63 -74 -13 -14 -42 -48 -65 -75
-23 -26 -55 -63 -72 -80 -16 -18 -52 -59 -80 -92 -27 -32 -61 -71 -75 -86 -14
-14 -42 -46 -62 -70 -77 -90 -173 -200 -228 -261 -25 -27 -54 -61 -65 -75 -11
-14 -29 -35 -40 -46 -11 -12 -47 -53 -80 -91 -33 -39 -62 -72 -65 -75 -3 -3
-39 -43 -80 -90 -41 -47 -81 -92 -90 -101 -8 -9 -33 -37 -55 -63 -21 -26 -48
-58 -60 -70 -11 -13 -45 -51 -75 -86 -30 -35 -63 -73 -73 -84 -10 -12 -30 -34
-44 -51 -15 -16 -54 -61 -88 -100 -34 -38 -72 -83 -86 -99 -13 -16 -31 -36
-40 -45 -9 -9 -47 -52 -84 -96 -38 -44 -72 -82 -75 -85 -3 -3 -34 -39 -69 -80
-36 -41 -73 -84 -82 -95 -18 -20 -17 -20 537 -20 l555 1 32 35 c18 20 57 65
87 100 30 35 62 70 70 79 8 9 40 45 70 80 30 36 62 72 70 80 8 8 40 44 70 80
30 36 62 72 70 80 8 8 42 47 74 85 33 39 64 75 70 80 6 6 38 42 71 80 32 39
66 77 75 86 23 24 66 73 169 194 52 61 99 115 105 120 6 6 38 42 71 80 32 39
66 77 75 86 8 9 35 39 60 68 25 29 54 62 65 75 11 12 47 53 80 91 33 38 69 78
80 91 11 12 39 44 62 71 67 77 91 105 138 158 24 28 52 60 62 72 11 12 44 49
74 83 30 34 72 83 94 108 22 26 55 62 73 81 17 19 32 39 32 44 0 10 10 -3 65
-78 11 -15 25 -32 30 -39 6 -6 24 -29 40 -51 17 -22 35 -45 40 -51 6 -6 19
-23 30 -38 27 -37 103 -137 118 -156 7 -9 33 -42 57 -75 25 -33 47 -62 50 -65
3 -3 34 -43 69 -90 104 -137 194 -255 200 -260 3 -3 11 -12 16 -21 6 -10 60
-82 121 -160 61 -79 141 -184 179 -234 38 -49 86 -112 107 -140 21 -27 45 -59
54 -70 39 -52 60 -79 74 -95 8 -10 22 -28 30 -40 8 -12 42 -57 75 -100 33 -42
92 -119 130 -170 39 -50 75 -97 80 -103 6 -7 22 -28 35 -47 13 -19 27 -37 30
-40 3 -3 28 -34 55 -70 27 -36 56 -72 65 -80 13 -14 139 -15 1120 -14 608 1
1109 2 1113 3 5 1 -13 29 -40 63 -58 76 -53 69 -109 143 -24 33 -53 71 -64 85
-11 14 -40 52 -64 85 -25 33 -49 65 -54 70 -5 6 -17 24 -28 40 -10 17 -29 40
-41 51 -13 12 -23 26 -23 31 0 5 -8 18 -18 29 -9 10 -33 39 -52 64 -19 25 -38
47 -42 48 -5 2 -8 8 -8 14 0 5 -20 35 -45 66 -57 72 -54 68 -98 127 -20 28
-40 55 -44 60 -5 6 -42 55 -83 110 -41 55 -77 102 -80 105 -3 3 -29 37 -57 75
-29 39 -56 75 -61 80 -4 6 -31 42 -60 80 -29 39 -59 79 -68 90 -8 11 -32 42
-52 70 -20 27 -41 55 -47 61 -11 12 -26 32 -101 134 -27 36 -51 67 -54 70 -3
3 -17 21 -30 40 -13 19 -30 42 -37 50 -8 8 -75 96 -149 195 -74 99 -144 190
-155 203 -10 12 -19 25 -19 30 0 4 -14 21 -30 39 -17 18 -30 36 -30 42 0 5 -4
11 -8 13 -4 2 -37 41 -72 88 -35 47 -68 87 -72 88 -4 2 -8 8 -8 13 0 5 -7 17
-15 26 -8 10 -34 45 -59 78 -25 33 -49 65 -53 70 -5 6 -35 46 -68 90 -33 44
-62 82 -65 85 -3 3 -65 84 -137 182 -73 97 -140 183 -148 192 -9 9 -14 16 -10
16 4 0 0 7 -9 15 -8 9 -74 94 -147 190 -147 196 -139 170 -74 241 11 12 40 45
65 74 25 30 52 61 60 69 9 9 56 63 105 120 50 58 99 114 110 126 11 11 43 47
70 79 28 32 68 79 90 104 56 63 71 80 123 141 26 30 58 66 72 81 14 14 41 46
62 71 20 24 51 60 70 80 18 20 53 60 78 89 25 29 54 62 65 74 32 36 76 87 140
161 33 39 71 82 85 96 14 14 40 44 58 67 19 23 44 52 55 65 28 30 141 159 187
212 19 22 37 42 40 45 3 3 32 37 65 75 33 39 64 75 70 81 5 6 35 39 65 74 30
34 64 72 75 85 11 12 34 38 50 57 118 136 143 164 165 188 14 14 36 39 49 55
24 32 131 152 169 191 13 13 21 24 19 24 -3 0 19 26 49 57 29 32 51 60 48 62
-3 3 -250 6 -550 6 l-545 0 -32 -30 c-18 -17 -39 -40 -47 -52 -37 -52 -119
-141 -124 -136 -3 4 -6 -1 -6 -9 0 -9 -4 -18 -8 -20 -5 -1 -53 -55 -108 -118
-54 -63 -107 -124 -117 -135 -11 -11 -71 -81 -135 -154 -65 -74 -128 -147
-142 -161 -14 -15 -36 -40 -49 -56 -14 -16 -52 -60 -86 -99 -34 -38 -70 -81
-81 -94 -10 -13 -26 -31 -35 -40 -9 -9 -51 -56 -94 -106 -42 -49 -82 -94 -89
-100 -6 -5 -21 -23 -34 -39 -19 -24 -53 -64 -167 -192 -18 -20 -64 -73 -125
-143 -11 -14 -45 -52 -74 -85 -30 -34 -105 -120 -168 -192 l-115 -132 -19 26
c-31 41 -103 136 -112 147 -4 6 -37 48 -72 95 -35 47 -68 87 -72 88 -4 2 -8
10 -8 17 0 7 -3 15 -7 17 -5 2 -35 39 -67 83 -33 44 -66 86 -73 93 -7 7 -13
16 -13 20 0 4 -14 21 -30 39 -17 18 -30 35 -30 38 0 5 -37 54 -106 138 -7 9
-11 17 -7 17 4 0 0 6 -9 13 -8 6 -70 86 -138 177 -68 91 -134 179 -147 195
-13 17 -27 35 -31 40 -4 6 -28 37 -53 70 -25 33 -101 134 -169 225 -68 91
-126 167 -129 170 -17 15 -71 90 -71 99 0 5 -4 11 -8 13 -5 2 -28 30 -53 63
-24 33 -46 62 -49 65 -3 3 -28 35 -55 73 -27 37 -54 67 -59 68 -27 3 -2244 4
-2263 1z m1944 -647 c10 -11 52 -65 93 -120 41 -55 77 -102 80 -105 3 -3 32
-41 65 -85 70 -94 63 -85 120 -157 25 -31 45 -60 45 -63 0 -4 6 -12 13 -20 21
-22 41 -48 77 -100 19 -27 40 -54 46 -60 5 -5 23 -28 39 -50 16 -22 33 -44 37
-50 5 -5 29 -37 54 -70 50 -67 84 -111 99 -129 6 -7 15 -19 20 -28 11 -17 276
-369 285 -378 3 -3 52 -68 110 -145 58 -77 108 -141 113 -143 4 -2 7 -10 7
-17 0 -7 4 -15 8 -17 5 -1 59 -70 121 -153 62 -82 117 -151 122 -153 5 -2 9
-8 9 -13 0 -8 87 -127 101 -139 4 -3 17 -21 30 -40 14 -19 32 -44 41 -55 9
-11 65 -85 125 -165 59 -80 110 -147 113 -150 3 -3 40 -52 84 -110 43 -58 88
-118 101 -135 21 -28 177 -233 217 -287 146 -195 391 -518 405 -534 10 -11 23
-28 28 -37 12 -19 277 -370 285 -377 3 -3 30 -39 60 -80 30 -41 65 -86 77
-100 13 -14 23 -28 23 -31 0 -3 13 -22 30 -40 16 -19 30 -40 30 -46 0 -7 4
-13 8 -13 5 0 30 -30 58 -67 27 -38 54 -75 61 -83 50 -62 123 -161 123 -167 0
-3 6 -11 14 -17 7 -6 69 -85 137 -176 68 -91 127 -169 131 -175 25 -29 108
-144 108 -149 0 -3 -137 -6 -304 -6 l-305 0 -22 33 c-13 17 -27 34 -31 35 -4
2 -8 8 -8 13 0 8 -13 25 -55 73 -5 6 -21 27 -35 46 -13 19 -28 40 -32 45 -5 6
-31 39 -58 75 -27 36 -53 70 -58 75 -4 6 -44 57 -87 115 -101 132 -91 120
-120 155 -14 17 -38 48 -53 70 -15 21 -35 47 -44 57 -10 10 -18 21 -18 26 0 4
-15 24 -33 44 -17 20 -84 105 -147 188 -63 84 -142 187 -175 230 -33 43 -67
88 -75 100 -8 12 -20 28 -25 34 -6 6 -47 58 -90 116 -44 58 -82 107 -85 110
-3 3 -48 61 -100 130 -52 69 -96 127 -100 130 -3 3 -44 57 -92 120 -47 63
-158 208 -245 321 -164 214 -179 235 -250 328 -24 31 -50 65 -59 76 -8 11 -24
31 -34 45 -11 14 -37 48 -58 75 -21 28 -89 118 -152 200 -63 83 -117 152 -120
155 -3 3 -17 21 -30 40 -19 27 -133 176 -188 245 -4 6 -21 28 -37 50 -17 22
-32 42 -35 45 -3 3 -48 61 -99 130 -52 69 -104 137 -115 151 -12 14 -30 38
-41 53 -11 16 -24 33 -30 40 -5 6 -23 29 -40 51 -16 22 -34 45 -40 51 -5 6
-17 22 -25 34 -8 12 -19 28 -25 34 -5 6 -34 43 -62 81 -29 39 -59 77 -66 85
-8 8 -25 31 -38 50 -13 19 -26 37 -29 40 -3 3 -21 25 -40 50 -48 63 -53 69
-67 85 -7 7 -13 18 -13 23 0 6 -4 12 -8 14 -4 2 -21 21 -37 43 -35 46 -35 47
-114 147 -34 43 -61 82 -61 87 0 5 -4 11 -8 13 -4 2 -23 23 -42 48 -19 25 -37
47 -40 50 -9 9 -220 289 -220 292 0 2 146 3 325 3 311 0 325 -1 342 -20z"/>
<path d="M4957 9996 c-2 -6 -3 -271 -3 -589 1 -317 1 -577 0 -577 -1 0 -20 26
-42 59 -82 116 -221 230 -314 256 -5 2 -10 4 -13 5 -3 1 -8 3 -12 5 -5 1 -15
4 -23 8 -90 37 -304 54 -438 34 -157 -22 -309 -102 -434 -228 -167 -167 -276
-411 -304 -679 -8 -76 -8 -74 -19 -82 -7 -5 -7 -8 0 -8 6 0 9 -19 8 -42 -10
-205 3 -348 46 -520 5 -21 6 -38 2 -38 -3 0 -1 -4 4 -8 6 -4 17 -27 24 -52 33
-112 129 -274 226 -379 71 -78 238 -191 281 -191 8 0 14 -4 14 -8 0 -5 6 -9
13 -9 6 0 30 -5 52 -11 22 -6 56 -14 75 -18 43 -10 284 -9 325 0 72 17 147 38
173 48 15 6 30 11 35 10 4 -1 7 2 7 8 0 5 5 10 10 10 19 0 113 66 160 111 53
51 130 150 130 168 0 7 3 10 8 8 4 -3 7 -75 6 -161 -1 -136 1 -156 15 -157 19
-1 309 -1 331 0 13 1 15 175 13 1508 0 830 -1 1513 -2 1519 -1 7 -58 11 -176
11 -116 0 -175 -4 -178 -11z m-496 -1100 c53 -10 139 -43 159 -61 9 -8 21 -15
27 -15 5 0 39 -28 74 -63 61 -59 149 -191 149 -222 0 -7 5 -17 10 -20 6 -3 10
-16 10 -29 0 -12 4 -26 9 -31 5 -6 12 -23 15 -40 3 -16 10 -51 16 -78 16 -78
23 -166 23 -277 -1 -92 -9 -225 -14 -225 -1 0 -3 -12 -5 -27 -5 -47 -33 -150
-56 -208 -55 -137 -161 -267 -264 -322 -57 -29 -152 -60 -165 -53 -4 3 -10 1
-13 -4 -6 -10 -190 -8 -216 3 -8 3 -28 8 -43 10 -54 9 -152 64 -206 116 -101
95 -183 248 -207 384 -3 16 -6 32 -8 35 -11 18 -21 155 -21 291 0 140 6 223
21 291 3 13 7 35 10 48 3 13 9 32 15 43 5 10 8 18 5 18 -6 0 17 56 50 125 36
73 43 83 111 161 61 70 169 128 277 150 10 2 20 5 22 6 5 6 179 1 215 -6z"/>
<path d="M11308 9204 c-2 -1 -28 -5 -58 -8 -30 -3 -71 -9 -90 -12 -19 -3 -40
-7 -47 -8 -7 -1 -16 -5 -19 -9 -4 -4 -16 -7 -26 -7 -33 0 -152 -53 -215 -96
-108 -74 -171 -152 -215 -267 -24 -62 -27 -75 -34 -147 -3 -30 -7 -65 -10 -77
-2 -12 0 -24 5 -27 4 -3 6 -17 4 -30 -8 -40 27 -176 61 -239 33 -63 117 -154
163 -178 15 -8 30 -17 33 -20 4 -5 71 -36 125 -59 37 -16 140 -49 165 -54 14
-2 25 -5 25 -6 0 -1 9 -3 20 -5 11 -1 40 -8 65 -14 25 -6 54 -13 65 -16 11 -2
29 -6 40 -8 11 -3 51 -13 89 -22 267 -63 387 -138 418 -263 29 -114 1 -222
-74 -293 -38 -35 -111 -78 -143 -83 -5 -1 -15 -5 -21 -8 -11 -7 -38 -13 -125
-27 -46 -8 -286 -6 -344 3 -27 4 -52 8 -110 20 -99 20 -268 78 -372 127 -44
22 -85 39 -91 39 -5 0 -9 -72 -8 -181 1 -161 3 -181 19 -190 9 -6 17 -8 17 -5
0 3 24 -3 53 -13 28 -10 55 -19 60 -20 4 0 8 -1 10 -2 1 0 10 -2 20 -5 9 -2
23 -6 30 -8 6 -2 31 -7 55 -11 23 -4 45 -12 48 -16 3 -5 9 -7 13 -4 5 2 44 -2
87 -11 116 -22 201 -28 364 -28 184 1 250 9 384 45 37 10 74 23 80 28 7 6 21
12 32 14 48 8 188 103 247 169 127 140 175 317 140 523 -8 44 -18 84 -23 89
-6 6 -10 18 -10 28 0 42 -93 161 -172 221 -50 37 -208 113 -241 115 -1 1 -15
6 -32 12 -51 21 -240 69 -335 86 -44 8 -203 53 -255 72 -156 57 -223 129 -226
244 -2 103 23 171 83 228 40 38 132 78 219 96 110 23 349 23 479 1 105 -18
242 -60 338 -103 29 -13 56 -24 61 -24 4 0 8 74 9 164 l1 164 -42 17 c-23 9
-49 18 -57 20 -8 2 -28 8 -44 15 -16 6 -41 12 -55 14 -14 3 -51 9 -81 15 -59
13 -141 24 -177 24 -13 1 -23 3 -23 7 0 5 -347 10 -352 4z"/>
</g>
</svg>
